<svg xmlns="http://www.w3.org/2000/svg" width="512" height="495.72" viewBox="0 0 512 495.72"><defs><style>.a{fill:#efefef;}.b,.c{stroke:none;}.c{fill:#fff;}</style></defs><g transform="translate(0 -8.14)"><g class="a"><path class="b" d="M 169.915283203125 497.3597106933594 C 168.7664337158203 497.3597106933594 167.6419982910156 497.149658203125 166.5730743408203 496.7353515625 C 70.81464385986328 460.2409362792969 6.5 366.7733764648438 6.5 264.1400146484375 C 6.5 126.5652160644531 118.4252166748047 14.64000511169434 256 14.64000511169434 C 393.5747985839844 14.64000511169434 505.5 126.5652160644531 505.5 264.1400146484375 C 505.5 366.7854309082031 441.1860656738281 460.2398681640625 345.4630126953125 496.6895141601562 C 344.36962890625 497.1114196777344 343.24072265625 497.3200073242188 342.080078125 497.3200073242188 C 340.6493530273438 497.3200073242188 339.245849609375 496.9957275390625 337.9085083007812 496.3561401367188 C 335.5579223632812 495.1993713378906 333.783935546875 493.1500854492188 332.9779968261719 490.6171569824219 L 284.9869995117188 337.3655090332031 C 283.6645812988281 333.0769958496094 285.5376281738281 328.3750915527344 289.4490661621094 326.2124328613281 C 312.2993469238281 313.6272277832031 326.5 289.8405151367188 326.5 264.1400146484375 C 326.5 225.2661437988281 294.8738708496094 193.6399993896484 256 193.6399993896484 C 217.1261444091797 193.6399993896484 185.5 225.2661437988281 185.5 264.1400146484375 C 185.5 289.8165893554688 199.6843566894531 313.61328125 222.5177154541016 326.2438049316406 C 226.4765777587891 328.4136352539062 228.3473510742188 333.0897827148438 226.9882202148438 337.3747863769531 L 178.9810028076172 490.677490234375 C 178.1980743408203 493.1981506347656 176.4402160644531 495.2322998046875 174.0267791748047 496.4194946289062 C 172.7686462402344 497.0281372070312 171.3337097167969 497.3597106933594 169.915283203125 497.3597106933594 Z M 256 174.6399993896484 C 305.3504943847656 174.6399993896484 345.5 214.7895050048828 345.5 264.1400146484375 C 345.5 292.2782287597656 331.8973693847656 319.1943054199219 309.1128540039062 336.1404418945312 L 305.4095764160156 338.8948059082031 L 306.7892150878906 343.299072265625 L 345.8932189941406 468.1310729980469 L 348.125 475.2555847167969 L 354.87451171875 472.064208984375 C 434.8339233398438 434.2568054199219 486.5 352.6416625976562 486.5 264.1400146484375 C 486.5 137.0418701171875 383.09814453125 33.64000701904297 256 33.64000701904297 C 128.90185546875 33.64000701904297 25.5 137.0418701171875 25.5 264.1400146484375 C 25.5 352.6481628417969 77.17900085449219 434.263427734375 157.1584930419922 472.0646362304688 L 163.908935546875 475.2552185058594 L 166.1392211914062 468.1295776367188 L 205.2112121582031 343.2975769042969 L 206.5894927978516 338.8940734863281 L 202.8871459960938 336.1404418945312 C 180.1026458740234 319.1943054199219 166.5 292.2782287597656 166.5 264.1400146484375 C 166.5 214.7895050048828 206.6495056152344 174.6399993896484 256 174.6399993896484 Z"/><path class="c" d="M 256 21.1400146484375 C 122.0093078613281 21.1400146484375 13 130.1493225097656 13 264.1400146484375 C 13 364.094482421875 75.63278198242188 455.1211547851562 168.9224548339844 490.6747741699219 C 169.239013671875 490.7974548339844 169.5730895996094 490.8597106933594 169.9152221679688 490.8597106933594 C 170.3590087890625 490.8597106933594 170.8148498535156 490.7526245117188 171.1576232910156 490.5870971679688 C 171.9531555175781 490.1957092285156 172.5254516601562 489.5482482910156 172.778076171875 488.7350769042969 L 220.7923889160156 335.4096069335938 C 221.2149963378906 334.0772399902344 220.6360778808594 332.6248474121094 219.3714599609375 331.931640625 C 194.4694519042969 318.1568603515625 179 292.1806030273438 179 264.1400146484375 C 179 221.6820678710938 213.5420837402344 187.1400146484375 256 187.1400146484375 C 298.4579162597656 187.1400146484375 333 221.6820678710938 333 264.1400146484375 C 333 292.2095336914062 317.5103149414062 318.1778564453125 292.5941467285156 331.9009399414062 C 291.341552734375 332.5934448242188 290.77099609375 334.0640869140625 291.18994140625 335.423095703125 L 339.1719970703125 488.6463928222656 C 339.4364624023438 489.4773864746094 340.0296936035156 490.1552429199219 340.7129211425781 490.4922485351562 C 341.1676025390625 490.7096862792969 341.6276245117188 490.8200073242188 342.080078125 490.8200073242188 C 342.4423217773438 490.8200073242188 342.7742919921875 490.7598571777344 343.14990234375 490.614990234375 C 436.3686828613281 455.1189270019531 499 364.1056213378906 499 264.1400146484375 C 499 130.1493225097656 389.9906921386719 21.1400146484375 256 21.1400146484375 M 344.1539916992188 484.3232421875 L 339.6903686523438 470.0740966796875 L 300.5863647460938 345.2420654296875 L 297.8271484375 336.4335327148438 L 305.2337646484375 330.9248657226562 C 326.3770751953125 315.1993103027344 339 290.2330017089844 339 264.1400146484375 C 339 218.3736267089844 301.7663879394531 181.1400146484375 256 181.1400146484375 C 210.2336120605469 181.1400146484375 173 218.3736267089844 173 264.1400146484375 C 173 290.2330017089844 185.6229248046875 315.1993103027344 206.7662353515625 330.9248657226562 L 214.1710815429688 336.4322509765625 L 211.4144592285156 345.2391662597656 L 172.3424682617188 470.0711669921875 L 167.8819274902344 484.3223876953125 L 154.3809204101562 477.94140625 C 72.14016723632812 439.0713195800781 19 355.1492919921875 19 264.1400146484375 C 19 133.457763671875 125.3177795410156 27.1400146484375 256 27.1400146484375 C 386.6822204589844 27.1400146484375 493 133.457763671875 493 264.1400146484375 C 493 355.1423950195312 439.8731689453125 439.0640869140625 357.6529235839844 477.9404602050781 L 344.1539916992188 484.3232421875 M 256 8.1400146484375 C 397.1520080566406 8.1400146484375 512 122.9880065917969 512 264.1400146484375 C 512 369.4520263671875 446.0159912109375 465.3560180664062 347.7760620117188 502.7640075683594 C 345.9520874023438 503.468017578125 344.0320739746094 503.8200073242188 342.080078125 503.8200073242188 C 339.6799926757812 503.8200073242188 337.31201171875 503.2760009765625 335.10400390625 502.2200012207031 C 331.135986328125 500.2680053710938 328.1279907226562 496.81201171875 326.7839965820312 492.5880126953125 L 278.7839965820312 339.3079833984375 C 276.5440063476562 332.0440063476562 279.6480102539062 324.2040100097656 286.3040161132812 320.5239868164062 C 307.10400390625 309.0679931640625 320 287.468017578125 320 264.1400146484375 C 320 228.843994140625 291.2960205078125 200.1400146484375 256 200.1400146484375 C 220.7040100097656 200.1400146484375 192 228.843994140625 192 264.1400146484375 C 192 287.468017578125 204.89599609375 309.0679931640625 225.6640014648438 320.5559997558594 C 232.3200073242188 324.2040100097656 235.4880065917969 332.0759887695312 233.1839904785156 339.3400268554688 L 185.1839904785156 492.6199951171875 C 183.8720092773438 496.843994140625 180.864013671875 500.3000183105469 176.89599609375 502.2520141601562 C 174.6959838867188 503.3165283203125 172.3091125488281 503.8596801757812 169.9152526855469 503.8596801757812 C 167.9915161132812 503.8596801757812 166.0632629394531 503.5089111328125 164.2239990234375 502.7960205078125 C 65.9840087890625 465.3560180664062 0 369.4520263671875 0 264.1400146484375 C 0 122.9880065917969 114.8479919433594 8.1400146484375 256 8.1400146484375 Z M 352.0960083007812 466.18798828125 C 429.2479858398438 429.7080078125 480 350.5400085449219 480 264.1400146484375 C 480 140.6199951171875 379.4880065917969 40.1400146484375 256 40.1400146484375 C 132.4800109863281 40.1400146484375 32 140.6199951171875 32 264.1400146484375 C 32 350.5400085449219 82.75201416015625 429.7080078125 159.9360046386719 466.18798828125 L 199.0079956054688 341.3560180664062 C 174.656005859375 323.2440185546875 160 294.7000122070312 160 264.1400146484375 C 160 211.2120056152344 203.0719909667969 168.1400146484375 256 168.1400146484375 C 308.927978515625 168.1400146484375 352 211.2120056152344 352 264.1400146484375 C 352 294.6679992675781 337.343994140625 323.2440185546875 312.9920043945312 341.3560180664062 L 352.0960083007812 466.18798828125 Z"/></g></g></svg>