<svg xmlns="http://www.w3.org/2000/svg" width="512" height="495.72"><defs><style>.a{fill:#efefef}.b,.c{stroke:none}.c{fill:#fff}</style></defs><g class="a"><path class="b" d="M169.915 489.22a9.212 9.212 0 0 1-3.342-.625C70.815 452.101 6.5 358.633 6.5 256 6.5 118.425 118.425 6.5 256 6.5S505.5 118.425 505.5 256c0 102.645-64.314 196.1-160.037 232.55a9.322 9.322 0 0 1-3.383.63 9.605 9.605 0 0 1-4.171-.964 9.613 9.613 0 0 1-4.931-5.739l-47.991-153.251c-1.322-4.289.55-8.99 4.462-11.154C312.3 305.487 326.5 281.701 326.5 256c0-38.874-31.626-70.5-70.5-70.5-38.874 0-70.5 31.626-70.5 70.5 0 25.677 14.184 49.473 37.018 62.104 3.959 2.17 5.83 6.846 4.47 11.13l-48.007 153.303c-.783 2.521-2.54 4.555-4.954 5.742a9.544 9.544 0 0 1-4.112.94zM256 166.5c49.35 0 89.5 40.15 89.5 89.5 0 28.138-13.603 55.054-36.387 72l-3.703 2.755 1.38 4.404 39.103 124.832 2.232 7.125 6.75-3.192C434.834 426.117 486.5 344.502 486.5 256c0-127.098-103.402-230.5-230.5-230.5S25.5 128.902 25.5 256c0 88.508 51.679 170.123 131.658 207.925l6.75 3.19 2.231-7.125 39.072-124.832 1.378-4.404-3.702-2.754c-22.784-16.946-36.387-43.862-36.387-72 0-49.35 40.15-89.5 89.5-89.5z"/><path class="c" d="M256 13C122.01 13 13 122.01 13 256c0 99.954 62.633 190.981 155.922 226.535.317.122.651.185.993.185.444 0 .9-.107 1.243-.273.795-.391 1.367-1.039 1.62-1.852l48.014-153.325c.423-1.333-.156-2.785-1.42-3.478C194.468 310.017 179 284.04 179 256c0-42.458 34.542-77 77-77s77 34.542 77 77c0 28.07-15.49 54.038-40.406 67.76a3 3 0 0 0-1.404 3.523l47.982 153.223c.264.831.858 1.51 1.54 1.846a3.16 3.16 0 0 0 1.368.328c.362 0 .694-.06 1.07-.205C436.369 446.979 499 355.965 499 256c0-133.99-109.01-243-243-243m88.154 463.183l-4.464-14.249-39.104-124.832-2.759-8.808 7.407-5.51C326.377 307.06 339 282.094 339 256c0-45.766-37.234-83-83-83s-83 37.234-83 83c0 26.093 12.623 51.06 33.766 66.785l7.405 5.507-2.757 8.807-39.072 124.832-4.46 14.251-13.501-6.38C72.14 430.931 19 347.008 19 256 19 125.318 125.318 19 256 19c130.682 0 237 106.318 237 237 0 91.002-53.127 174.924-135.347 213.8l-13.499 6.383M256 0c141.152 0 256 114.848 256 256 0 105.312-65.984 201.216-164.224 238.624a15.768 15.768 0 0 1-5.696 1.056c-2.4 0-4.768-.544-6.976-1.6-3.968-1.952-6.976-5.408-8.32-9.632l-48-153.28c-2.24-7.264.864-15.104 7.52-18.784C307.104 300.928 320 279.328 320 256c0-35.296-28.704-64-64-64s-64 28.704-64 64c0 23.328 12.896 44.928 33.664 56.416 6.656 3.648 9.824 11.52 7.52 18.784l-48 153.28c-1.312 4.224-4.32 7.68-8.288 9.632a16.028 16.028 0 0 1-6.98 1.608c-1.924 0-3.853-.351-5.692-1.064C65.984 457.216 0 361.312 0 256 0 114.848 114.848 0 256 0zm96.096 458.048C429.248 421.568 480 342.4 480 256c0-123.52-100.512-224-224-224C132.48 32 32 132.48 32 256c0 86.4 50.752 165.568 127.936 202.048l39.072-124.832C174.656 315.104 160 286.56 160 256c0-52.928 43.072-96 96-96s96 43.072 96 96c0 30.528-14.656 59.104-39.008 77.216l39.104 124.832z"/></g></svg>